<?xml version="1.0" standalone="no"?>
<!DOCTYPE svg PUBLIC "-//W3C//DTD SVG 20010904//EN"
 "http://www.w3.org/TR/2001/REC-SVG-20010904/DTD/svg10.dtd">
<svg version="1.0" xmlns="http://www.w3.org/2000/svg"
 width="1134.000000pt" height="1134.000000pt" viewBox="0 0 1134.000000 1134.000000"
 preserveAspectRatio="xMidYMid meet">
<metadata>
Created by potrace 1.14, written by Peter Selinger 2001-2017
</metadata>
<g transform="translate(0.000000,1134.000000) scale(0.100000,-0.100000)"
fill="#000000" stroke="none">
<path d="M601 10780 c-8 -6 -9 -1910 -1 -1910 3 0 826 -2 1830 -5 2428 -7
3411 -17 3645 -40 28 -2 75 -7 105 -10 30 -3 66 -7 80 -10 25 -5 64 -12 110
-19 301 -48 676 -177 935 -322 101 -57 265 -163 319 -206 157 -125 313 -275
406 -388 25 -30 47 -57 50 -60 17 -14 136 -190 187 -276 78 -129 168 -317 219
-451 71 -188 149 -465 170 -601 3 -20 9 -55 14 -77 8 -36 31 -202 45 -315 3
-25 8 -88 11 -140 3 -52 7 -120 10 -150 5 -70 5 -451 0 -510 -2 -25 -7 -86
-10 -136 -4 -49 -8 -101 -11 -115 -2 -13 -6 -49 -10 -80 -3 -31 -8 -67 -10
-80 -4 -22 -14 -82 -20 -124 -23 -152 -110 -450 -182 -625 -103 -248 -275
-531 -418 -686 -191 -208 -336 -331 -552 -466 -254 -160 -664 -325 -953 -384
-14 -3 -50 -11 -80 -19 -48 -12 -262 -55 -345 -69 -144 -25 -333 -39 -680 -52
-212 -8 -1141 -8 -1500 0 -359 8 -710 18 -712 20 -5 4 -5 3217 -1 3222 3 2 35
5 72 6 l66 2 1 53 c1 29 1 62 1 73 0 11 0 146 -1 300 l-1 279 -325 0 c-179 0
-331 -2 -338 -5 -10 -3 -12 -80 -10 -347 1 -188 2 -345 2 -349 1 -5 32 -8 69
-8 l69 0 0 -1790 c0 -985 2 -1792 5 -1795 3 -3 25 -7 49 -9 146 -13 189 -17
229 -21 137 -14 331 -29 520 -40 30 -2 96 -6 145 -9 250 -16 445 -20 935 -20
479 0 621 3 825 19 158 13 257 23 350 35 44 6 98 13 120 16 114 15 359 61 556
105 953 212 1574 592 1990 1217 186 281 338 636 425 997 16 69 34 148 38 166
2 13 11 62 20 109 17 97 22 123 31 200 4 30 9 64 11 74 2 11 6 49 9 85 3 36 8
82 10 101 5 50 17 214 21 285 4 93 4 533 -1 595 -2 30 -7 89 -10 130 -3 41 -8
91 -10 110 -3 19 -7 58 -11 85 -5 43 -31 200 -50 300 -25 136 -98 384 -161
545 -317 811 -938 1428 -1798 1785 -159 66 -479 168 -599 191 -11 2 -32 6 -46
9 -41 9 -191 33 -245 40 -50 7 -231 8 -3020 20 -803 4 -1629 7 -1835 8 -206 1
-380 5 -386 9 -6 4 -11 33 -12 65 0 32 -3 222 -7 423 -3 201 -7 433 -8 515
l-2 150 55 2 c30 1 1173 4 2540 7 1367 4 3436 9 4598 11 l2112 6 1 -153 c1
-84 2 -200 4 -258 1 -58 6 -258 10 -445 3 -187 8 -419 10 -515 2 -96 6 -323
10 -505 3 -181 8 -409 10 -505 2 -96 7 -313 10 -481 4 -168 8 -317 9 -332 2
-15 -1 -30 -6 -33 -5 -3 -49 -6 -98 -6 -84 -1 -90 -2 -91 -22 -1 -27 -1 -669
0 -678 1 -4 169 -6 374 -5 l372 2 0 350 0 350 -88 1 c-48 1 -90 3 -92 6 -2 2
-7 224 -10 493 -10 918 -15 1300 -20 1675 -3 206 -7 600 -10 875 -3 275 -7
509 -9 520 -3 20 -11 20 -5015 20 -2757 0 -5016 -2 -5020 -5z"/>
<path d="M601 7600 c-4 -3 -7 -1596 -6 -3540 l0 -3535 5038 -1 c2770 -1 5038
2 5039 5 3 14 9 572 23 2166 10 1099 14 1448 19 1452 2 3 45 4 95 4 88 -1 91
0 92 21 3 83 4 655 1 666 -3 9 -93 12 -406 12 l-401 0 -2 -349 -2 -348 92 -2
c50 -1 94 -4 97 -7 3 -3 6 -148 6 -322 9 -1879 15 -2896 19 -2901 2 -4 0 -13
-4 -19 -9 -14 13 -14 -4651 -6 -1537 3 -3227 6 -3755 7 l-960 2 2 665 c1 366
4 1167 7 1780 11 2124 18 3366 19 3622 1 141 5 259 8 262 8 9 688 21 2349 42
1099 14 2338 8 2468 -12 68 -10 187 -43 287 -79 119 -43 361 -159 385 -185 3
-3 28 -20 56 -38 28 -18 61 -40 72 -50 12 -9 38 -30 59 -47 98 -76 218 -207
299 -325 108 -157 202 -398 229 -585 3 -22 8 -51 10 -65 19 -106 26 -424 12
-531 -54 -399 -269 -728 -622 -955 -227 -145 -530 -254 -750 -269 -49 -3 -112
-8 -140 -10 -27 -2 -90 -7 -140 -10 -49 -3 -115 -8 -145 -10 -47 -4 -153 -11
-290 -20 -186 -13 -246 -17 -252 -21 -14 -9 -17 41 -23 356 -3 179 -8 424 -10
545 -2 121 -7 340 -10 488 -3 147 -2 268 2 268 27 5 54 7 98 10 83 4 77 -46
60 514 -1 61 -3 131 -4 158 l-1 47 -356 0 -356 0 6 -137 c14 -315 18 -411 21
-468 2 -33 4 -74 4 -92 1 -31 1 -31 69 -39 37 -4 73 -7 80 -5 9 1 12 -18 13
-71 1 -113 7 -797 13 -1396 2 -299 6 -545 8 -547 3 -3 93 -8 328 -20 91 -5
657 -5 720 0 25 1 86 6 135 9 182 13 334 38 561 92 657 156 1060 478 1253
1002 26 71 64 200 77 267 12 61 24 137 29 190 4 33 8 76 11 95 6 51 5 462 -1
550 -9 114 -26 246 -41 310 -3 14 -8 36 -10 50 -3 14 -21 77 -40 140 -142 457
-459 816 -909 1031 -183 87 -394 153 -578 180 -62 9 -716 12 -2740 13 -1463 1
-2662 -1 -2666 -4z"/>
</g>
</svg>
