<?xml version="1.0" encoding="utf-8"?>
<!-- Generator: Adobe Illustrator 23.0.6, SVG Export Plug-In . SVG Version: 6.00 Build 0)  -->
<svg version="1.1" id="Layer_1" xmlns="http://www.w3.org/2000/svg" xmlns:xlink="http://www.w3.org/1999/xlink" x="0px" y="0px"
	 viewBox="0 0 166.8 48" style="enable-background:new 0 0 166.8 48;" xml:space="preserve">
<style type="text/css">
	.st0{fill:#C3996B;stroke:#C3996B;stroke-miterlimit:10;}
	.st1{fill:none;stroke:#C3996B;stroke-width:2;stroke-miterlimit:10;}
</style>
<g id="XMLID_5_">
	<path id="XMLID_4_" class="st0" d="M40.1,21.1h2.7v-2.6h-0.6L42.1,5.2H3.4v7.1c0,0,19.1,0,21.2,0.2s9.9,1.3,10.2,11.6
		c0.3,10.3-7.5,11.4-9.9,11.8S13.6,36,13.6,36l0-11.9l0.6,0l0-2.6l-2.6,0l0,2.6h0.5v13.3c0,0,7.9,0.9,12.9,0s11.4-2.6,11.4-13.5
		c0-10.9-10-12.8-11.8-12.8c-1.8,0-19.8-0.1-19.8-0.1L4.7,6.6l35.9-0.1l0.2,12h-0.7L40.1,21.1z"/>
	<path id="XMLID_2_" class="st0" d="M40.1,27.2h2.8v2.6h-0.5l-0.1,13.4H3.4V17c0,0,18.6,0,20.2,0c1.6,0,6.8,1.2,6.8,7
		c0.3,6.1-4.1,7-6.2,7.4s-5.8-0.1-5.8-0.1L18.3,24L17.6,24l-0.1-2.7h2.7l0.1,2.6L19.6,24l0.1,6.1l4.1-0.3c0,0,5.6-0.8,5.1-6
		c-0.2-4.1-4.1-5.3-5.2-5.6C22.4,18,4.8,18.3,4.8,18.3L4.7,41.8l36.2,0.1l-0.1-12L40,29.8L40.1,27.2z"/>
</g>
<path id="XMLID_273_" class="st1" d="M135.2,33.5c0.5,0,1-0.1,1.5-0.1c1.9-0.3,3.5-1.1,4.8-2.5c1.5-1.7,2.2-3.7,2.1-6
	c-0.1-2.5-1-4.6-2.9-6.1c-2.1-1.7-4.5-2.2-7.2-1.7c-1.7,0.3-3.2,1.1-4.4,2.4c-1.7,1.8-2.3,4-2.2,6.4c0.1,2.1,1,3.9,2.5,5.4
	C131,32.8,133,33.5,135.2,33.5z"/>
<path id="XMLID_272_" class="st1" d="M156.9,33c0.3,0,0.8-0.1,1.3-0.1c2.4-0.4,4.4-1.6,5.7-3.7c1.1-1.7,1.4-3.5,1.2-5.5
	c-0.3-2.4-1.4-4.3-3.3-5.8c-1.8-1.3-3.9-1.7-6.1-1.5c-3.4,0.4-6.4,2.8-7.1,6.5c-0.4,2.1-0.2,4.1,0.9,6
	C151.2,31.6,153.6,32.9,156.9,33z"/>
<path id="XMLID_271_" class="st0" d="M52.8,17.1c0,0.2,0,0.4,0,0.6c0,0.3,0.1,0.4,0.4,0.4c1.8,0,3.6,0,5.4,0c0.7,0,1.4,0,2.1,0.1
	c2.1,0.3,3.8,1.4,4.9,3.2c1,1.7,1.2,3.6,0.8,5.5c-0.3,1.3-0.9,2.5-1.9,3.4c-1.5,1.4-3.2,1.9-5.2,1.9c-1.6,0-3.3,0-4.9,0
	c-0.3,0-0.5-0.1-0.5-0.5c0-2,0-4,0-5.9c0-0.8,0.1-0.7-0.7-0.7c-0.3,0-0.4,0.1-0.4,0.4c0,2.5,0,4.9,0,7.4c0,0.1,0,0.2,0,0.4
	c0.2,0,0.3,0,0.5,0c2,0,3.9,0,5.9,0c0.7,0,1.4-0.1,2.1-0.2c2.2-0.5,4-1.5,5.3-3.5c1-1.7,1.4-3.5,1.2-5.5c-0.2-2-1-3.6-2.4-4.9
	c-1.6-1.5-3.5-2.2-5.6-2.2c-2.2,0-4.3,0-6.5,0C53,17,52.9,17,52.8,17.1z"/>
<path id="XMLID_270_" class="st0" d="M121.4,19.1c-0.6-0.6-1.2-1-1.8-1.4c-1.6-0.7-3.2-1-4.9-0.8c-2.6,0.3-4.7,1.5-6.2,3.7
	c-1,1.5-1.3,3.3-1.2,5.1c0.1,2.2,0.9,4,2.5,5.5c1.8,1.7,3.9,2.3,6.2,2.2c1.9-0.1,3.7-0.6,5.1-1.9c0.1-0.1,0.2-0.3,0.2-0.5
	c0-1.7,0-3.4,0-5.1c0-0.8,0-0.6-0.6-0.7c-0.4,0-0.5,0.1-0.5,0.5c0,1.4,0,2.7,0,4.1c0,1.3,0,1.3-1.1,1.8c-1.6,0.8-3.2,0.9-4.9,0.6
	c-2.1-0.4-3.8-1.5-4.9-3.3c-0.9-1.5-1.1-3.2-0.9-4.9c0.2-1.5,0.8-2.7,1.8-3.8c1.5-1.6,3.4-2.4,5.6-2.3c1.6,0,3,0.4,4.3,1.4
	c0.2,0.2,0.4,0.3,0.6,0.5C121,19.6,121.2,19.4,121.4,19.1z"/>
<path id="XMLID_269_" class="st0" d="M82.4,18.1c-0.1,0.2-0.2,0.3-0.2,0.4c-1.4,1.9-2.9,3.8-4.3,5.7c-2.1,2.7-4.2,5.5-6.3,8.2
	c-0.3,0.3-0.2,0.7-0.2,1.1c4.3,0,8.6,0,12.9,0c0-0.2,0-0.3,0-0.4c0-0.6,0-0.6-0.6-0.6c-3.4,0-6.9,0-10.3,0c-0.1,0-0.3,0-0.4,0
	c0.1-0.1,0.2-0.2,0.2-0.3c1.5-2,3.1-4,4.6-6.1c2-2.6,4-5.2,6-7.8c0.3-0.4,0.2-0.7,0.2-1.1c-0.2,0-0.3,0-0.4,0c-2.3,0-4.5,0-6.8,0
	c-1.6,0-3.2,0-4.9,0c-0.1,0-0.3,0-0.3,0.1c0,0.3-0.1,0.6,0,0.8c0,0.1,0.3,0.1,0.4,0.1c3.3,0,6.7,0,10,0C82,18.1,82.1,18.1,82.4,18.1
	z"/>
<path id="XMLID_268_" class="st0" d="M104.5,33.4c-0.1-0.2-0.1-0.3-0.2-0.4c-0.3-0.7-0.6-1.3-0.9-2c-2-4.5-4.1-9-6.1-13.5
	c-0.1-0.3-0.2-0.5-0.6-0.5c-0.4,0.1-0.8-0.1-1,0.4c-2.2,5-4.5,10-6.8,15c-0.1,0.3-0.3,0.6-0.4,0.9c0.3,0,0.6,0,0.8,0
	c0.3,0,0.4-0.1,0.5-0.3c2.1-4.7,4.2-9.5,6.3-14.2c0.1-0.2,0.2-0.3,0.3-0.6c0.1,0.2,0.2,0.3,0.2,0.4c1.4,3.1,2.8,6.2,4.1,9.3
	c0.8,1.7,1.5,3.4,2.3,5.1c0.1,0.1,0.2,0.3,0.3,0.3C103.8,33.4,104.1,33.4,104.5,33.4z"/>
</svg>
